<svg width="626" height="149" viewBox="0 0 626 149" fill="none" xmlns="http://www.w3.org/2000/svg">
<path d="M0.2775 53V1.16H13.7815C16.0002 1.16 18.0908 1.33066 20.0535 1.672C22.0588 2.01333 23.8295 2.67466 25.3655 3.656C26.9015 4.59467 28.0962 5.96 28.9495 7.752C29.8455 9.50133 30.2935 11.8267 30.2935 14.728C30.2935 16.8187 29.9735 18.5893 29.3335 20.04C28.7362 21.448 27.8615 22.5787 26.7095 23.432C25.6002 24.2853 24.2562 24.8613 22.6775 25.16C24.6828 25.416 26.3682 26.0773 27.7335 27.144C29.0988 28.168 30.1228 29.5547 30.8055 31.304C31.5308 33.0533 31.8935 35.1653 31.8935 37.64C31.8935 40.328 31.5308 42.6533 30.8055 44.616C30.1228 46.536 29.1202 48.1147 27.7975 49.352C26.4748 50.5893 24.8322 51.5067 22.8695 52.104C20.9495 52.7013 18.7308 53 16.2135 53H0.2775ZM11.7335 45H14.1655C16.6828 45 18.4108 44.36 19.3495 43.08C20.3308 41.8 20.8215 39.9227 20.8215 37.448C20.8215 35.4853 20.6082 33.928 20.1815 32.776C19.7548 31.624 19.0508 30.792 18.0695 30.28C17.0882 29.7253 15.7655 29.448 14.1015 29.448H11.7335V45ZM11.7335 21.896H13.9735C15.7228 21.896 17.0455 21.64 17.9415 21.128C18.8375 20.5733 19.4348 19.784 19.7335 18.76C20.0748 17.736 20.2455 16.4987 20.2455 15.048C20.2455 13.6827 19.9895 12.552 19.4775 11.656C19.0082 10.7173 18.2828 10.0133 17.3015 9.544C16.3628 9.07466 15.1682 8.84 13.7175 8.84H11.7335V21.896ZM37.9025 53V1.16H61.1985V8.968H49.3585V21.832H58.3825V29.768H49.3585V45.256H61.3265V53H37.9025ZM80.2875 53.768C77.0448 53.768 74.3355 53.192 72.1595 52.04C69.9835 50.888 68.3408 49.1173 67.2315 46.728C66.1222 44.296 65.5035 41.16 65.3755 37.32L75.1675 35.848C75.2102 38.0667 75.4022 39.8587 75.7435 41.224C76.1275 42.5893 76.6395 43.5707 77.2795 44.168C77.9622 44.7653 78.7728 45.064 79.7115 45.064C80.9062 45.064 81.6742 44.6587 82.0155 43.848C82.3995 43.0373 82.5915 42.184 82.5915 41.288C82.5915 39.1547 82.0795 37.3627 81.0555 35.912C80.0315 34.4187 78.6448 32.9253 76.8955 31.432L72.4155 27.528C70.4528 25.864 68.7888 23.9867 67.4235 21.896C66.1008 19.7627 65.4395 17.1387 65.4395 14.024C65.4395 9.62933 66.7408 6.28 69.3435 3.976C71.9462 1.62933 75.4875 0.455997 79.9675 0.455997C82.7408 0.455997 84.9595 0.925331 86.6235 1.864C88.3302 2.80267 89.6102 4.04 90.4635 5.576C91.3595 7.06933 91.9568 8.66933 92.2555 10.376C92.5968 12.04 92.7888 13.64 92.8315 15.176L82.9755 16.392C82.9328 14.856 82.8262 13.5333 82.6555 12.424C82.5275 11.272 82.2288 10.3973 81.7595 9.8C81.2902 9.16 80.5648 8.84 79.5835 8.84C78.5168 8.84 77.7275 9.288 77.2155 10.184C76.7462 11.08 76.5115 11.976 76.5115 12.872C76.5115 14.792 76.9595 16.3707 77.8555 17.608C78.7942 18.8027 80.0102 20.0613 81.5035 21.384L85.7915 25.16C88.0528 27.08 89.9515 29.256 91.4875 31.688C93.0662 34.12 93.8555 37.128 93.8555 40.712C93.8555 43.144 93.3008 45.3627 92.1915 47.368C91.0822 49.3307 89.5035 50.888 87.4555 52.04C85.4502 53.192 83.0608 53.768 80.2875 53.768ZM104.075 53V9.672H96.2665V1.16H123.339V9.672H115.595V53H104.075ZM159.126 53.768C155.243 53.768 152.171 53.0853 149.91 51.72C147.648 50.3547 146.027 48.392 145.046 45.832C144.064 43.272 143.574 40.2213 143.574 36.68V17.416C143.574 13.832 144.064 10.7813 145.046 8.264C146.027 5.74666 147.648 3.82667 149.91 2.504C152.171 1.13866 155.243 0.455997 159.126 0.455997C163.051 0.455997 166.144 1.13866 168.406 2.504C170.71 3.82667 172.352 5.74666 173.333 8.264C174.315 10.7813 174.806 13.832 174.806 17.416V36.68C174.806 40.2213 174.315 43.272 173.333 45.832C172.352 48.392 170.71 50.3547 168.406 51.72C166.144 53.0853 163.051 53.768 159.126 53.768ZM159.126 45.64C160.32 45.64 161.195 45.3413 161.75 44.744C162.304 44.1467 162.667 43.3787 162.838 42.44C163.008 41.5013 163.094 40.5413 163.094 39.56V14.6C163.094 13.576 163.008 12.616 162.838 11.72C162.667 10.7813 162.304 10.0133 161.75 9.416C161.195 8.81866 160.32 8.52 159.126 8.52C158.016 8.52 157.184 8.81866 156.63 9.416C156.075 10.0133 155.712 10.7813 155.542 11.72C155.371 12.616 155.286 13.576 155.286 14.6V39.56C155.286 40.5413 155.35 41.5013 155.478 42.44C155.648 43.3787 155.99 44.1467 156.502 44.744C157.056 45.3413 157.931 45.64 159.126 45.64ZM181.778 53V1.16H189.842L200.466 26.12V1.16H209.938V53H202.194L191.57 26.12V53H181.778ZM217.653 53V1.16H240.949V8.968H229.109V21.832H238.133V29.768H229.109V45.256H241.077V53H217.653ZM276.413 53.768C273.17 53.768 270.461 53.192 268.285 52.04C266.109 50.888 264.466 49.1173 263.357 46.728C262.247 44.296 261.629 41.16 261.501 37.32L271.293 35.848C271.335 38.0667 271.527 39.8587 271.869 41.224C272.253 42.5893 272.765 43.5707 273.405 44.168C274.087 44.7653 274.898 45.064 275.837 45.064C277.031 45.064 277.799 44.6587 278.141 43.848C278.525 43.0373 278.717 42.184 278.717 41.288C278.717 39.1547 278.205 37.3627 277.181 35.912C276.157 34.4187 274.77 32.9253 273.021 31.432L268.541 27.528C266.578 25.864 264.914 23.9867 263.549 21.896C262.226 19.7627 261.565 17.1387 261.565 14.024C261.565 9.62933 262.866 6.28 265.469 3.976C268.071 1.62933 271.613 0.455997 276.093 0.455997C278.866 0.455997 281.085 0.925331 282.749 1.864C284.455 2.80267 285.735 4.04 286.589 5.576C287.485 7.06933 288.082 8.66933 288.381 10.376C288.722 12.04 288.914 13.64 288.957 15.176L279.101 16.392C279.058 14.856 278.951 13.5333 278.781 12.424C278.653 11.272 278.354 10.3973 277.885 9.8C277.415 9.16 276.69 8.84 275.708 8.84C274.642 8.84 273.853 9.288 273.341 10.184C272.871 11.08 272.637 11.976 272.637 12.872C272.637 14.792 273.085 16.3707 273.981 17.608C274.919 18.8027 276.135 20.0613 277.628 21.384L281.917 25.16C284.178 27.08 286.077 29.256 287.613 31.688C289.191 34.12 289.981 37.128 289.981 40.712C289.981 43.144 289.426 45.3627 288.317 47.368C287.207 49.3307 285.629 50.888 283.581 52.04C281.575 53.192 279.186 53.768 276.413 53.768ZM300.2 53V9.672H292.392V1.16H319.464V9.672H311.72V53H300.2ZM338.376 53.768C334.493 53.768 331.421 53.0853 329.16 51.72C326.898 50.3547 325.277 48.392 324.296 45.832C323.314 43.272 322.824 40.2213 322.824 36.68V17.416C322.824 13.832 323.314 10.7813 324.296 8.264C325.277 5.74666 326.898 3.82667 329.16 2.504C331.421 1.13866 334.493 0.455997 338.376 0.455997C342.301 0.455997 345.394 1.13866 347.656 2.504C349.96 3.82667 351.602 5.74666 352.583 8.264C353.565 10.7813 354.056 13.832 354.056 17.416V36.68C354.056 40.2213 353.565 43.272 352.583 45.832C351.602 48.392 349.96 50.3547 347.656 51.72C345.394 53.0853 342.301 53.768 338.376 53.768ZM338.376 45.64C339.57 45.64 340.445 45.3413 341 44.744C341.554 44.1467 341.917 43.3787 342.088 42.44C342.258 41.5013 342.344 40.5413 342.344 39.56V14.6C342.344 13.576 342.258 12.616 342.088 11.72C341.917 10.7813 341.554 10.0133 341 9.416C340.445 8.81866 339.57 8.52 338.376 8.52C337.266 8.52 336.434 8.81866 335.88 9.416C335.325 10.0133 334.962 10.7813 334.792 11.72C334.621 12.616 334.536 13.576 334.536 14.6V39.56C334.536 40.5413 334.6 41.5013 334.728 42.44C334.898 43.3787 335.24 44.1467 335.752 44.744C336.306 45.3413 337.181 45.64 338.376 45.64ZM361.028 53V1.16H378.436C381.55 1.16 384.11 1.75733 386.116 2.952C388.121 4.104 389.614 5.81066 390.596 8.072C391.577 10.2907 392.068 13 392.068 16.2C392.068 20.2107 391.406 23.2827 390.083 25.416C388.761 27.5067 386.969 28.9573 384.708 29.768C382.446 30.5787 379.908 30.984 377.092 30.984H372.484V53H361.028ZM372.484 22.984H376.324C377.732 22.984 378.798 22.728 379.524 22.216C380.249 21.704 380.718 20.936 380.932 19.912C381.188 18.888 381.316 17.5867 381.316 16.008C381.316 14.6853 381.209 13.5333 380.996 12.552C380.825 11.528 380.377 10.7173 379.652 10.12C378.926 9.52267 377.796 9.224 376.26 9.224H372.484V22.984ZM427.725 53.768C424.482 53.768 421.773 53.192 419.597 52.04C417.421 50.888 415.778 49.1173 414.669 46.728C413.56 44.296 412.941 41.16 412.813 37.32L422.605 35.848C422.648 38.0667 422.84 39.8587 423.181 41.224C423.565 42.5893 424.077 43.5707 424.717 44.168C425.4 44.7653 426.21 45.064 427.149 45.064C428.344 45.064 429.112 44.6587 429.453 43.848C429.837 43.0373 430.029 42.184 430.029 41.288C430.029 39.1547 429.517 37.3627 428.493 35.912C427.469 34.4187 426.082 32.9253 424.333 31.432L419.853 27.528C417.89 25.864 416.226 23.9867 414.861 21.896C413.538 19.7627 412.877 17.1387 412.877 14.024C412.877 9.62933 414.178 6.28 416.781 3.976C419.384 1.62933 422.925 0.455997 427.405 0.455997C430.178 0.455997 432.397 0.925331 434.061 1.864C435.768 2.80267 437.048 4.04 437.901 5.576C438.797 7.06933 439.394 8.66933 439.693 10.376C440.034 12.04 440.226 13.64 440.269 15.176L430.413 16.392C430.37 14.856 430.264 13.5333 430.093 12.424C429.965 11.272 429.666 10.3973 429.197 9.8C428.728 9.16 428.002 8.84 427.021 8.84C425.954 8.84 425.165 9.288 424.653 10.184C424.184 11.08 423.949 11.976 423.949 12.872C423.949 14.792 424.397 16.3707 425.293 17.608C426.232 18.8027 427.448 20.0613 428.941 21.384L433.229 25.16C435.49 27.08 437.389 29.256 438.925 31.688C440.504 34.12 441.293 37.128 441.293 40.712C441.293 43.144 440.738 45.3627 439.629 47.368C438.52 49.3307 436.941 50.888 434.893 52.04C432.888 53.192 430.498 53.768 427.725 53.768ZM446.84 53V1.16H470.136V8.968H458.296V21.832H467.32V29.768H458.296V45.256H470.264V53H446.84ZM475.465 53V1.16H489.737C493.236 1.16 496.265 1.544 498.825 2.312C501.385 3.08 503.369 4.46666 504.777 6.472C506.228 8.43466 506.953 11.2293 506.953 14.856C506.953 16.9893 506.782 18.888 506.441 20.552C506.1 22.216 505.46 23.6667 504.521 24.904C503.625 26.0987 502.324 27.1013 500.617 27.912L507.721 53H495.881L490.185 29.768H486.921V53H475.465ZM486.921 23.176H490.121C491.742 23.176 493.001 22.8987 493.897 22.344C494.793 21.7467 495.412 20.9147 495.753 19.848C496.137 18.7387 496.329 17.416 496.329 15.88C496.329 13.6613 495.924 11.9333 495.113 10.696C494.302 9.45866 492.809 8.84 490.633 8.84H486.921V23.176ZM520.315 53L510.971 1.16H520.763L526.331 36.36L531.515 1.16H541.882L532.411 53H520.315ZM547.154 53V1.16H558.61V53H547.154ZM581.188 53.768C577.263 53.768 574.148 53.064 571.844 51.656C569.583 50.2053 567.983 48.2 567.044 45.64C566.105 43.0373 565.636 39.9867 565.636 36.488V17.8C565.636 14.216 566.105 11.144 567.044 8.584C567.983 5.98133 569.583 3.976 571.844 2.568C574.148 1.16 577.263 0.455997 581.188 0.455997C585.028 0.455997 588.015 1.096 590.148 2.376C592.324 3.61333 593.86 5.36266 594.756 7.624C595.652 9.88533 596.1 12.488 596.1 15.432V19.912H584.9V14.728C584.9 13.704 584.836 12.7227 584.708 11.784C584.623 10.8453 584.324 10.0773 583.812 9.48C583.3 8.84 582.425 8.52 581.188 8.52C579.993 8.52 579.097 8.84 578.5 9.48C577.945 10.12 577.583 10.9307 577.412 11.912C577.284 12.8507 577.22 13.8533 577.22 14.92V39.304C577.22 40.456 577.305 41.5227 577.476 42.504C577.689 43.4427 578.073 44.2107 578.628 44.808C579.225 45.3627 580.079 45.64 581.188 45.64C582.383 45.64 583.236 45.3413 583.748 44.744C584.26 44.104 584.58 43.2933 584.708 42.312C584.836 41.3307 584.9 40.328 584.9 39.304V33.864H596.1V38.344C596.1 41.288 595.652 43.9333 594.756 46.28C593.903 48.584 592.388 50.4187 590.212 51.784C588.079 53.1067 585.071 53.768 581.188 53.768ZM602.403 53V1.16H625.699V8.968H613.859V21.832H622.883V29.768H613.859V45.256H625.827V53H602.403ZM148.873 148V96.16H160.329V148H148.873ZM168.059 148V96.16H176.123L186.747 121.12V96.16H196.219V148H188.475L177.851 121.12V148H168.059ZM234.069 148.768C230.826 148.768 228.117 148.192 225.941 147.04C223.765 145.888 222.122 144.117 221.013 141.728C219.903 139.296 219.285 136.16 219.157 132.32L228.949 130.848C228.991 133.067 229.183 134.859 229.525 136.224C229.909 137.589 230.421 138.571 231.061 139.168C231.743 139.765 232.554 140.064 233.493 140.064C234.687 140.064 235.455 139.659 235.797 138.848C236.181 138.037 236.373 137.184 236.373 136.288C236.373 134.155 235.861 132.363 234.837 130.912C233.813 129.419 232.426 127.925 230.677 126.432L226.197 122.528C224.234 120.864 222.57 118.987 221.205 116.896C219.882 114.763 219.221 112.139 219.221 109.024C219.221 104.629 220.522 101.28 223.125 98.976C225.727 96.6293 229.269 95.456 233.749 95.456C236.522 95.456 238.741 95.9253 240.405 96.864C242.111 97.8027 243.391 99.04 244.245 100.576C245.141 102.069 245.738 103.669 246.037 105.376C246.378 107.04 246.57 108.64 246.613 110.176L236.757 111.392C236.714 109.856 236.607 108.533 236.437 107.424C236.309 106.272 236.01 105.397 235.541 104.8C235.071 104.16 234.346 103.84 233.365 103.84C232.298 103.84 231.509 104.288 230.997 105.184C230.527 106.08 230.293 106.976 230.293 107.872C230.293 109.792 230.741 111.371 231.637 112.608C232.575 113.803 233.791 115.061 235.285 116.384L239.573 120.16C241.834 122.08 243.733 124.256 245.269 126.688C246.847 129.12 247.637 132.128 247.637 135.712C247.637 138.144 247.082 140.363 245.973 142.368C244.863 144.331 243.285 145.888 241.237 147.04C239.231 148.192 236.842 148.768 234.069 148.768ZM268.16 148.768C264.192 148.768 261.077 148.128 258.816 146.848C256.597 145.525 255.04 143.627 254.144 141.152C253.248 138.635 252.8 135.563 252.8 131.936V96.16H264.128V133.664C264.128 134.731 264.213 135.797 264.384 136.864C264.554 137.931 264.917 138.805 265.472 139.488C266.069 140.171 266.965 140.512 268.16 140.512C269.397 140.512 270.293 140.171 270.848 139.488C271.402 138.805 271.744 137.931 271.872 136.864C272.042 135.797 272.128 134.731 272.128 133.664V96.16H283.52V131.936C283.52 135.563 283.05 138.635 282.112 141.152C281.216 143.627 279.658 145.525 277.44 146.848C275.221 148.128 272.128 148.768 268.16 148.768ZM290.809 148V96.16H305.081C308.579 96.16 311.609 96.544 314.169 97.312C316.729 98.08 318.713 99.4667 320.121 101.472C321.571 103.435 322.297 106.229 322.297 109.856C322.297 111.989 322.126 113.888 321.785 115.552C321.443 117.216 320.803 118.667 319.865 119.904C318.969 121.099 317.667 122.101 315.961 122.912L323.065 148H311.225L305.529 124.768H302.265V148H290.809ZM302.265 118.176H305.465C307.086 118.176 308.345 117.899 309.241 117.344C310.137 116.747 310.755 115.915 311.097 114.848C311.481 113.739 311.673 112.416 311.673 110.88C311.673 108.661 311.267 106.933 310.457 105.696C309.646 104.459 308.153 103.84 305.977 103.84H302.265V118.176ZM326.688 148L336.48 96.16H349.536L359.2 148H348.64L346.912 137.056H339.296L337.504 148H326.688ZM340.32 130.208H345.824L343.072 109.984L340.32 130.208ZM364.434 148V96.16H377.938C380.156 96.16 382.247 96.3307 384.21 96.672C386.215 97.0133 387.986 97.6747 389.522 98.656C391.058 99.5947 392.252 100.96 393.106 102.752C394.002 104.501 394.45 106.827 394.45 109.728C394.45 111.819 394.13 113.589 393.49 115.04C392.892 116.448 392.018 117.579 390.866 118.432C389.756 119.285 388.412 119.861 386.834 120.16C388.839 120.416 390.524 121.077 391.89 122.144C393.255 123.168 394.279 124.555 394.962 126.304C395.687 128.053 396.05 130.165 396.05 132.64C396.05 135.328 395.687 137.653 394.962 139.616C394.279 141.536 393.276 143.115 391.954 144.352C390.631 145.589 388.988 146.507 387.026 147.104C385.106 147.701 382.887 148 380.37 148H364.434ZM375.89 140H378.322C380.839 140 382.567 139.36 383.506 138.08C384.487 136.8 384.978 134.923 384.978 132.448C384.978 130.485 384.764 128.928 384.338 127.776C383.911 126.624 383.207 125.792 382.226 125.28C381.244 124.725 379.922 124.448 378.258 124.448H375.89V140ZM375.89 116.896H378.13C379.879 116.896 381.202 116.64 382.098 116.128C382.994 115.573 383.591 114.784 383.89 113.76C384.231 112.736 384.402 111.499 384.402 110.048C384.402 108.683 384.146 107.552 383.634 106.656C383.164 105.717 382.439 105.013 381.458 104.544C380.519 104.075 379.324 103.84 377.874 103.84H375.89V116.896ZM399.438 148L409.23 96.16H422.286L431.95 148H421.39L419.662 137.056H412.046L410.254 148H399.438ZM413.07 130.208H418.574L415.822 109.984L413.07 130.208ZM441.149 148V126.816L431.293 96.16H442.109L447.037 112.544L451.453 96.16H461.821L452.157 126.816V148H441.149ZM461.125 148L470.917 96.16H483.973L493.637 148H483.077L481.349 137.056H473.733L471.941 148H461.125ZM474.757 130.208H480.261L477.509 109.984L474.757 130.208Z" fill="white"/>
</svg>
